<svg height="512pt" viewBox="0 -41 512 512" width="512pt" xmlns="http://www.w3.org/2000/svg"><path d="m37.867188 109.480469c-3.074219-3.074219-4.835938-7.332031-4.835938-11.675781v-15.222657c0-9.121093-7.394531-16.515625-16.515625-16.515625s-16.515625 7.394532-16.515625 16.515625v15.222657c0 13.230468 5.152344 25.675781 14.511719 35.03125l66.714843 66.714843 2.710938-44zm0 0" fill="#6e4848"/><path d="m33.03125 82.582031v15.222657c0 4.34375 1.761719 8.601562 4.835938 11.675781l46.070312 46.070312-1.347656 21.84375-56.398438-56.402343c-6.195312-6.191407-9.675781-14.59375-9.675781-23.355469v-31.570313c9.121094 0 16.515625 7.394532 16.515625 16.515625zm0 0" fill="#785353"/><path d="m474.132812 109.480469c3.074219-3.074219 4.835938-7.332031 4.835938-11.675781v-15.222657c0-9.121093 7.394531-16.515625 16.515625-16.515625s16.515625 7.394532 16.515625 16.515625v15.222657c0 13.230468-5.152344 25.675781-14.511719 35.03125l-66.714843 66.714843-2.710938-44zm0 0" fill="#966a5b"/><path d="m478.96875 82.582031v15.222657c0 4.34375-1.761719 8.601562-4.835938 11.675781l-46.070312 46.070312 1.347656 21.84375 56.398438-56.402343c6.195312-6.191407 9.675781-14.59375 9.675781-23.355469v-31.570313c-9.121094 0-16.515625 7.394532-16.515625 16.515625zm0 0" fill="#785353"/><path d="m49.546875 33.03125 13.214844 17.617188c7.503906 10.007812 11.558593 22.175781 11.558593 34.6875v112.171874c0 98.511719 76.605469 182.410157 175.054688 185.914063 103.359375 3.671875 188.300781-79.023437 188.300781-181.5625v-116.523437c0-12.511719 4.058594-24.679688 11.5625-34.6875l13.210938-17.617188zm0 0" fill="#e2a975"/><path d="m189.847656 197.503906v-112.171875c0-12.507812-4.054687-24.675781-11.558594-34.683593l-13.214843-17.617188h-115.527344l13.214844 17.617188c7.503906 10.007812 11.558593 22.175781 11.558593 34.6875v112.171874c0 98.511719 76.605469 182.414063 175.054688 185.914063 22.703125.804687 44.519531-2.5625 64.742188-9.386719-72.78125-24.882812-124.269532-95.777344-124.269532-176.53125zm0 0" fill="#d19a6e"/><path d="m338.582031 363.355469h-165.164062l-21.46875 28.628906c-2.144531 2.859375-3.304688 6.335937-3.304688 9.910156v19.265625c0 4.5625 3.699219 8.261719 8.257813 8.261719h198.195312c4.558594 0 8.257813-3.699219 8.257813-8.261719v-19.265625c0-3.574219-1.160157-7.050781-3.304688-9.910156zm0 0" fill="#d19a6e"/><g fill="#966a5b"><path d="m198.195312 90.839844c-2.113281 0-4.226562-.808594-5.839843-2.417969-3.226563-3.226563-3.226563-8.453125 0-11.679687l16.515625-16.515626c3.226562-3.226562 8.453125-3.226562 11.675781 0 3.226563 3.226563 3.226563 8.453126 0 11.675782l-16.515625 16.519531c-1.613281 1.609375-3.726562 2.417969-5.835938 2.417969zm0 0"/><path d="m239.484375 90.839844c-2.113281 0-4.226563-.808594-5.839844-2.417969-3.226562-3.226563-3.226562-8.453125 0-11.679687l16.515625-16.515626c3.226563-3.226562 8.453125-3.226562 11.679688 0 3.222656 3.226563 3.222656 8.453126 0 11.675782l-16.519532 16.519531c-1.609374 1.609375-3.722656 2.417969-5.835937 2.417969zm0 0"/><path d="m363.355469 90.839844c-2.113281 0-4.226563-.808594-5.839844-2.417969-3.226563-3.226563-3.226563-8.453125 0-11.679687l16.515625-16.515626c3.226562-3.226562 8.453125-3.226562 11.679688 0 3.222656 3.226563 3.222656 8.453126 0 11.675782l-16.519532 16.519531c-1.609375 1.609375-3.722656 2.417969-5.835937 2.417969zm0 0"/><path d="m280.773438 90.839844c-2.113282 0-4.226563-.808594-5.839844-2.417969-3.222656-3.226563-3.222656-8.453125 0-11.679687l16.515625-16.515626c3.226562-3.226562 8.453125-3.226562 11.679687 0 3.222656 3.226563 3.226563 8.453126 0 11.675782l-16.515625 16.519531c-1.613281 1.609375-3.726562 2.417969-5.839843 2.417969zm0 0"/><path d="m322.066406 90.839844c-2.113281 0-4.226562-.808594-5.839844-2.417969-3.226562-3.226563-3.226562-8.453125 0-11.679687l16.515626-16.515626c3.226562-3.226562 8.453124-3.226562 11.675781 0 3.226562 3.226563 3.226562 8.453126 0 11.675782l-16.515625 16.519531c-1.613282 1.609375-3.726563 2.417969-5.835938 2.417969zm0 0"/><path d="m404.644531 90.839844c-2.113281 0-4.226562-.808594-5.839843-2.417969-3.226563-3.226563-3.226563-8.453125 0-11.679687l16.515624-16.515626c3.226563-3.226562 8.453126-3.226562 11.679688 0 3.222656 3.226563 3.226562 8.453126 0 11.675782l-16.515625 16.519531c-1.613281 1.609375-3.726563 2.417969-5.839844 2.417969zm0 0"/><path d="m256 280.773438c-4.566406 0-8.257812-3.695313-8.257812-8.257813v-8.257813c0-4.558593 3.695312-8.257812 8.257812-8.257812s8.257812 3.699219 8.257812 8.257812v8.257813c0 4.5625-3.691406 8.257813-8.257812 8.257813zm0 0"/></g><path d="m189.933594 280.773438c-4.5625 0-8.257813-3.695313-8.257813-8.257813v-8.257813c0-4.558593 3.695313-8.257812 8.257813-8.257812 4.566406 0 8.257812 3.699219 8.257812 8.257812v8.257813c.003906 4.5625-3.691406 8.257813-8.257812 8.257813zm0 0" fill="#785353"/><path d="m123.871094 280.773438c-4.566406 0-8.257813-3.695313-8.257813-8.257813v-8.257813c0-4.558593 3.695313-8.257812 8.257813-8.257812 4.566406 0 8.257812 3.699219 8.257812 8.257812v8.257813c0 4.5625-3.695312 8.257813-8.257812 8.257813zm0 0" fill="#785353"/><path d="m289.03125 280.773438c-4.5625 0-8.257812-3.695313-8.257812-8.257813v-8.257813c0-4.558593 3.695312-8.257812 8.257812-8.257812 4.566406 0 8.257812 3.699219 8.257812 8.257812v8.257813c0 4.5625-3.691406 8.257813-8.257812 8.257813zm0 0" fill="#966a5b"/><path d="m222.96875 280.773438c-4.566406 0-8.257812-3.695313-8.257812-8.257813v-8.257813c0-4.558593 3.691406-8.257812 8.257812-8.257812 4.5625 0 8.257812 3.699219 8.257812 8.257812v8.257813c0 4.5625-3.695312 8.257813-8.257812 8.257813zm0 0" fill="#966a5b"/><path d="m156.902344 280.773438c-4.5625 0-8.257813-3.695313-8.257813-8.257813v-8.257813c0-4.558593 3.695313-8.257812 8.257813-8.257812 4.566406 0 8.257812 3.699219 8.257812 8.257812v8.257813c0 4.5625-3.691406 8.257813-8.257812 8.257813zm0 0" fill="#785353"/><path d="m322.066406 280.773438c-4.566406 0-8.257812-3.695313-8.257812-8.257813v-8.257813c0-4.558593 3.691406-8.257812 8.257812-8.257812 4.5625 0 8.257813 3.699219 8.257813 8.257812v8.257813c0 4.5625-3.695313 8.257813-8.257813 8.257813zm0 0" fill="#966a5b"/><path d="m388.128906 280.773438c-4.566406 0-8.257812-3.695313-8.257812-8.257813v-8.257813c0-4.558593 3.695312-8.257812 8.257812-8.257812s8.257813 3.699219 8.257813 8.257812v8.257813c0 4.5625-3.691407 8.257813-8.257813 8.257813zm0 0" fill="#966a5b"/><path d="m355.097656 280.773438c-4.566406 0-8.257812-3.695313-8.257812-8.257813v-8.257813c0-4.558593 3.691406-8.257812 8.257812-8.257812 4.5625 0 8.257813 3.699219 8.257813 8.257812v8.257813c0 4.5625-3.695313 8.257813-8.257813 8.257813zm0 0" fill="#966a5b"/><path d="m198.195312 396.386719c0 9.121093 7.394532 16.515625 16.515626 16.515625h148.644531v-11.011719c0-1.894531-.316407-3.765625-.949219-5.503906zm0 0" fill="#e2a975"/><path d="m151.949219 391.984375c-1.007813 1.339844-1.753907 2.839844-2.308594 4.402344h212.765625c-.523438-1.59375-1.347656-3.0625-2.355469-4.402344l-21.46875-28.628906h-165.164062zm0 0" fill="#966a5b"/><path d="m214.710938 379.871094h136.257812l-12.386719-16.515625h-165.164062l-21.46875 28.628906c-1.007813 1.339844-1.828125 2.863281-2.355469 4.402344h48.597656c.003906-9.121094 7.398438-16.515625 16.519532-16.515625zm0 0" fill="#785353"/><path d="m462.453125 33.03125h-412.90625c-9.121094 0-16.515625-7.394531-16.515625-16.515625s7.394531-16.515625 16.515625-16.515625h412.902344c9.125 0 16.519531 7.394531 16.519531 16.515625s-7.394531 16.515625-16.515625 16.515625zm0 0" fill="#966a5b"/><path d="m140.386719 0h-89.953125c-8.230469 0-15.855469 5.621094-17.175782 13.742188-1.683593 10.347656 6.257813 19.289062 16.289063 19.289062h412.902344c9.121093 0 16.519531-7.394531 16.519531-16.515625h-322.066406c-9.121094 0-16.515625-7.394531-16.515625-16.515625zm0 0" fill="#785353"/><path d="m433.773438 239.484375c1.140624-5.417969 2.007812-10.933594 2.652343-16.515625h-360.347656c.757813 5.582031 1.773437 11.085938 3.015625 16.515625zm0 0" fill="#966a5b"/><path d="m79.046875 239.484375h115.527344c-1.238281-5.425781-2.246094-10.941406-3.003907-16.515625h-115.53125c.757813 5.582031 1.769532 11.085938 3.007813 16.515625zm0 0" fill="#785353"/><path d="m73.21875 74.324219c.707031 3.617187 1.105469 7.285156 1.105469 11.011719v5.503906h363.355469v-5.503906c0-3.726563.347656-7.394532 1.050781-11.011719zm0 0" fill="#966a5b"/><path d="m188.78125 74.324219h-11.941406l2.417968-2.421875c3.226563-3.222656 3.226563-8.449219 0-11.675782-3.226562-3.226562-8.453124-3.226562-11.679687 0l-14.09375 14.097657h-17.9375l2.421875-2.417969c3.222656-3.226562 3.222656-8.453125 0-11.679688-3.226562-3.222656-8.453125-3.222656-11.679688 0l-14.097656 14.097657h-17.933594l2.417969-2.417969c3.226563-3.226562 3.226563-8.453125 0-11.675781-3.226562-3.226563-8.449219-3.226563-11.675781 0l-12.152344 12.148437c.371094 1.636719.507813 3.4375.765625 5.097656.011719 0 .019531.003907.027344.007813.390625 2.589844.679687 5.199219.679687 7.851563v5.503906h115.527344v-5.503906c0-3.726563-.363281-7.394532-1.066406-11.011719zm0 0" fill="#785353"/><path d="m429.417969 123.871094v57.804687h-41.289063v-16.515625h16.515625c4.566407 0 8.257813-3.695312 8.257813-8.257812v-33.03125c0-4.558594-3.691406-8.257813-8.257813-8.257813h-57.804687c-4.566406 0-8.257813 3.699219-8.257813 8.257813v57.804687h-41.292969v-16.515625h16.519532c4.5625 0 8.257812-3.695312 8.257812-8.257812v-33.03125c0-4.558594-3.695312-8.257813-8.257812-8.257813h-57.808594c-4.566406 0-8.257812 3.699219-8.257812 8.257813v57.804687h-41.289063v-16.515625h16.515625c4.5625 0 8.257812-3.695312 8.257812-8.257812v-33.03125c0-4.558594-3.695312-8.257813-8.257812-8.257813h-57.808594c-4.5625 0-8.257812 3.699219-8.257812 8.257813v57.804687h-41.289063v-16.515625h16.515625c4.566406 0 8.257813-3.695312 8.257813-8.257812v-33.03125c0-4.558594-3.691407-8.257813-8.257813-8.257813h-57.804687v81.890625c0 .230469.015625.457032.015625.6875 4.554687-.011718 8.242187-3.703125 8.242187-8.257812v-57.804688h41.289063v16.515625h-16.515625c-4.566407 0-8.257813 3.699219-8.257813 8.257813v33.03125c0 4.5625 3.691406 8.257812 8.257813 8.257812h57.804687c4.566406 0 8.257813-3.695312 8.257813-8.257812v-57.804688h41.292969v16.515625h-16.519532c-4.5625 0-8.257812 3.699219-8.257812 8.257813v33.03125c0 4.5625 3.695312 8.257812 8.257812 8.257812h57.808594c4.566406 0 8.257812-3.695312 8.257812-8.257812v-57.804688h41.289063v16.515625h-16.515625c-4.5625 0-8.257812 3.699219-8.257812 8.257813v33.03125c0 4.5625 3.695312 8.257812 8.257812 8.257812h57.808594c4.5625 0 8.257812-3.695312 8.257812-8.257812v-57.804688h41.289063v16.515625h-16.515625c-4.566406 0-8.257813 3.699219-8.257813 8.257813v33.03125c0 4.5625 3.691407 8.257812 8.257813 8.257812h57.804687v-82.578125c-4.5625 0-8.257812 3.699219-8.257812 8.257813zm0 0" fill="#966a5b"/><path d="m82.582031 189.9375v-57.808594h41.289063v16.515625h-16.515625c-4.566407 0-8.257813 3.699219-8.257813 8.257813v33.035156c0 4.558594 3.691406 8.257812 8.257813 8.257812h57.804687c4.566406 0 8.257813-3.699218 8.257813-8.257812v-57.808594h16.429687v-16.515625h-24.6875c-4.5625 0-8.257812 3.699219-8.257812 8.257813v57.808594h-41.289063v-16.519532h16.515625c4.566406 0 8.257813-3.695312 8.257813-8.257812v-33.03125c0-4.558594-3.695313-8.257813-8.257813-8.257813h-57.804687v81.894531c0 .226563.015625.453126.015625.683594 4.554687-.011718 8.242187-3.703125 8.242187-8.253906zm0 0" fill="#785353"/></svg>