<svg height="512pt" viewBox="0 0 512 512.00016" width="512pt" xmlns="http://www.w3.org/2000/svg"><path d="m424.945312 302.164062c-4.382812 18.429688-6.671874 37.292969-6.824218 56.234376 0 13.742187-2.476563 42.328124-4.777344 65.792968-2.414062 25.089844-18.457031 46.808594-41.730469 56.492188-36.671875 15.109375-75.960937 22.851562-115.625 22.78125-4.863281 0-9.558593-.082032-14.25-.339844-34.835937-1.566406-69.136719-9.160156-101.378906-22.441406-23.269531-9.683594-39.3125-31.402344-41.726563-56.492188-2.304687-23.464844-4.777343-52.050781-4.777343-65.792968-.15625-18.941407-2.445313-37.804688-6.828125-56.234376-8.90625-37.96875-4.757813-77.828124 11.777344-113.152343 6.824218-14.675781 13.824218-31.058594 19.964843-48.039063 6.289063-1.28125 12.640625-2.21875 19.03125-2.816406 11.25-1.070312 22.585938-.871094 33.792969.597656 4.632812.613282 9.222656 1.523438 13.738281 2.730469 6.769531 1.863281 13.996094-.566406 18.261719-6.144531l8.53125-11.4375c5.257812-7.085938 4.300781-17.003906-2.21875-22.953125-15.359375-14.078125-40.789062-42.070313-46.503906-77.652344-.863282-4.875-1.289063-9.816406-1.28125-14.761719 23.832031 15.292969 51.316406 23.953125 79.617187 25.085938 4.605469.339844 9.300781.511718 14.25.511718 21.828125.15625 43.519531-3.511718 64.085938-10.835937 10.539062-3.570313 20.554687-8.539063 29.78125-14.761719 0 42.578125-30.378907 76.457032-47.789063 92.414063-6.515625 5.949219-7.476562 15.867187-2.21875 22.953125l8.535156 11.4375c.972657 1.347656 2.1875 2.503906 3.582032 3.414062 4.222656 3.097656 9.625 4.101563 14.679687 2.730469 6.226563-1.6875 12.597657-2.800781 19.027344-3.328125 15.898437-1.316406 31.902344-.367188 47.53125 2.816406 6.144531 16.980469 13.140625 33.363282 19.96875 48.039063 16.53125 35.324219 20.679687 75.183593 11.773437 113.152343zm0 0" fill="#c52828"/><path d="m241.738281 33.621094c-4.609375.339844-9.304687.511718-14.253906.511718-21.828125.15625-43.519531-3.511718-64.082031-10.835937-10.542969-3.570313-20.558594-8.539063-29.78125-14.761719 0 42.578125 30.375 76.457032 47.785156 92.414063 6.554688 5.929687 7.515625 15.878906 2.21875 22.953125l-8.535156 11.4375c-.988282 1.304687-2.167969 2.453125-3.496094 3.414062-4.253906 3.097656-9.683594 4.101563-14.765625 2.730469-6.226563-1.6875-12.597656-2.800781-19.027344-3.328125-6.390625.597656-12.742187 1.535156-19.03125 2.816406-6.140625 16.980469-13.140625 33.363282-19.964843 48.039063-16.535157 35.324219-20.683594 75.183593-11.777344 113.152343 4.382812 18.429688 6.671875 37.292969 6.828125 56.234376 0 13.742187 2.472656 42.328124 4.777343 65.792968 2.414063 25.089844 18.457032 46.808594 41.726563 56.492188 32.242187 13.28125 66.542969 20.875 101.378906 22.441406 34.832031-1.566406 69.132813-9.160156 101.375-22.441406 23.273438-9.699219 39.335938-31.398438 41.8125-56.492188 2.21875-23.464844 4.695313-52.050781 4.695313-65.792968.136718-18.945313 2.453125-37.816407 6.910156-56.234376 8.820312-37.972656 4.675781-77.804687-11.777344-113.152343-6.824218-14.675781-13.824218-31.058594-19.964844-48.039063-6.320312-1.273437-12.699218-2.214844-19.117187-2.816406-11.222656-1.070312-22.527344-.871094-33.707031.597656-4.660156.621094-9.277344 1.53125-13.824219 2.730469-6.769531 1.847656-13.984375-.578125-18.261719-6.144531l-8.53125-11.4375c-5.257812-7.085938-4.300781-17.003906 2.21875-22.953125 15.359375-14.078125 40.789063-42.070313 46.507813-77.652344zm0 0" fill="#f44335"/><path d="m212.125 123.902344-8.53125 11.4375c-4.265625 5.578125-11.492188 8.007812-18.261719 6.144531l-1.195312-.257813c-27.136719-5.65625-55.261719-4.335937-81.75 3.839844l-28.84375-86.613281c-2.410157-7.097656.121093-14.941406 6.230469-19.285156 1.226562-.96875 2.613281-1.722657 4.097656-2.21875l78.25-28.414063c0 42.578125 30.378906 76.457032 47.785156 92.414063 6.519531 5.949219 7.476562 15.867187 2.21875 22.953125zm0 0" fill="#9e9e9e"/><path d="m190.707031 132.4375-6.570312 8.789062c-27.136719-5.65625-55.261719-4.335937-81.75 3.839844l-28.84375-86.613281c-2.410157-7.097656.121093-14.941406 6.230469-19.285156l60.929687-22.101563c0 42.582032 30.378906 76.457032 47.785156 92.417969 6.519531 5.949219 7.476563 15.863281 2.21875 22.953125zm0 0" fill="#cfd8dc"/><path d="m73.324219 57.863281-60.417969 34.382813c-3.585938 1.992187-5.246094 6.257812-3.949219 10.152344l18.386719 49.886718c1.652344 4.46875 5.09375 8.046875 9.496094 9.863282 4.40625 1.820312 9.367187 1.714843 13.691406-.289063 16.558594-7.625 33.96875-13.261719 51.855469-16.792969zm0 0" fill="#607d8b"/><path d="m438.429688 58.453125-28.84375 86.613281c-26.878907-8.296875-55.445313-9.53125-82.941407-3.582031-6.773437 1.863281-13.996093-.566406-18.261719-6.144531l-2.304687-3.074219-6.230469-8.363281c-5.257812-7.085938-4.296875-17.003906 2.21875-22.953125 17.410156-15.957031 47.789063-49.835938 47.789063-92.414063l54.867187 19.882813.511719.253906 22.871094 8.277344c8.710937 3.171875 13.296875 12.722656 10.324219 21.503906zm0 0" fill="#9e9e9e"/><path d="m415.046875 49.921875-28.839844 86.613281c-25.957031-7.964844-53.472656-9.429687-80.128906-4.269531l-6.230469-8.363281c-5.257812-7.085938-4.296875-17.003906 2.21875-22.953125 17.410156-15.957031 47.789063-49.835938 47.789063-92.414063l54.867187 19.882813.511719.253906c8.378906 3.371094 12.679687 12.683594 9.8125 21.25zm0 0" fill="#cfd8dc"/><path d="m503.027344 102.398438-18.433594 49.921874c-1.652344 4.449219-5.089844 8.011719-9.476562 9.824219-4.386719 1.8125-9.332032 1.714844-13.648438-.265625-.9375-.429687-1.960938-.941406-2.984375-1.367187-15.691406-6.910157-32.085937-12.089844-48.898437-15.445313l22.957031-68.863281 6.144531-18.347656 60.414062 34.390625c3.578126 2 5.226563 6.265625 3.925782 10.152344zm0 0" fill="#37474f"/><path d="m477.425781 109.566406-18.429687 49.921875c-.136719.355469-.308594.699219-.511719 1.023438-15.691406-6.910157-32.085937-12.089844-48.898437-15.445313l22.957031-68.863281 40.957031 23.210937c3.5625 2.019532 5.203125 6.265626 3.925781 10.152344zm0 0" fill="#607d8b"/><path d="m339.273438 445.953125-19.285157 50.6875c-16.484375 3.566406-33.242187 5.734375-50.089843 6.484375-4.523438.257812-9.21875.339844-13.910157.339844-21.515625.011718-42.972656-2.277344-64-6.824219l-19.285156-50.6875c-2.140625-5.589844-1.195313-11.894531 2.492187-16.609375 3.683594-4.714844 9.570313-7.15625 15.511719-6.433594 21.664063 2.582032 43.464844 3.835938 65.28125 3.757813 12.714844 0 24.234375-.429688 34.558594-1.023438 4.4375-.257812 8.703125-.515625 12.714844-.855469 6.65625-.597656 12.714843-1.195312 18.003906-1.878906 5.941406-.722656 11.828125 1.71875 15.515625 6.433594 3.683594 4.714844 4.628906 11.019531 2.492188 16.609375zm0 0" fill="#9e9e9e"/><path d="m353.863281 366.933594c-6.785156 19.683594-15.472656 38.660156-25.941406 56.660156-2.152344-.664062-4.414063-.894531-6.65625-.683594-21.660156 2.582032-43.460937 3.835938-65.277344 3.757813-4.351562 0-8.535156-.085938-12.546875-.171875-17.625-.308594-35.226562-1.503906-52.734375-3.585938-2.242187-.210937-4.503906.019532-6.65625.683594-10.464843-18-19.152343-36.976562-25.941406-56.660156-1.453125-4.46875-1.003906-9.339844 1.238281-13.472656 2.242188-4.128907 6.082032-7.15625 10.625-8.371094 24.027344-6.4375 48.640625-10.4375 73.46875-11.949219 4.183594-.253906 8.363282-.339844 12.546875-.339844 29.066407.5625 57.953125 4.6875 86.015625 12.289063 4.539063 1.214844 8.378906 4.242187 10.621094 8.371094 2.242188 4.132812 2.691406 9.003906 1.238281 13.472656zm0 0" fill="#37474f"/><path d="m359.070312 277.589844-37.632812 62.71875c-5.972656-1.277344-12.371094-2.472656-19.199219-3.582032-15.289062-2.523437-30.753906-3.835937-46.25-3.925781-11.097656.054688-22.183593.765625-33.195312 2.132813-11.605469 1.363281-22.613281 3.328125-32.257813 5.375l-1.191406-2.046875-36.4375-60.671875c-4.5-7.429688-2.699219-17.054688 4.179688-22.359375l83.285156-64c.828125-.644531 1.714844-1.21875 2.644531-1.707031 8.988281-5.3125 20.296875-4.636719 28.585937 1.707031l83.285157 64c6.882812 5.304687 8.683593 14.929687 4.183593 22.359375zm0 0" fill="#9e9e9e"/><path d="m316.828125 447.742188-19.367187 50.773437c-8.621094 1.878906-17.835938 3.414063-27.5625 4.609375-4.523438.257812-9.21875.339844-13.910157.339844-21.515625.011718-42.972656-2.277344-64-6.824219l-19.285156-50.6875c-2.804687-7.285156-.308594-15.542969 6.058594-20.054687 14.589843 1.449218 33.023437 2.644531 54.78125 2.644531 19.039062.054687 38.070312-.914063 57.003906-2.898438 2.902344-.257812 5.71875-.515625 8.277344-.855469 1.472656-.171874 2.964843-.171874 4.4375 0 5.144531.707032 9.6875 3.726563 12.332031 8.199219 2.640625 4.472657 3.097656 9.90625 1.234375 14.753907zm0 0" fill="#cfd8dc"/><path d="m336.628906 279.382812-34.390625 57.34375-3.242187 5.375c-21.515625-4.648437-43.441406-7.132812-65.453125-7.425781-3.582031 0-7.167969.085938-10.75.257813-11.203125.507812-22.367188 1.621094-33.449219 3.328125l-36.4375-60.671875c-4.5-7.429688-2.699219-17.054688 4.179688-22.359375l83.285156-64c.828125-.644531 1.714844-1.21875 2.644531-1.707031 2.207031.867187 4.273437 2.046874 6.144531 3.5l83.285156 64.085937c6.832032 5.292969 8.628907 14.859375 4.183594 22.273437zm0 0" fill="#cfd8dc"/><g fill="#37474f"><path d="m156.148438 137.558594c6.089843.085937 12.164062.625 18.175781 1.621094-4.144531 2.753906-9.273438 3.59375-14.082031 2.304687-1.875-.511719-3.753907-.941406-5.546876-1.28125zm0 0"/><path d="m302.066406 100.949219c-6.515625 5.949219-7.476562 15.867187-2.21875 22.953125l8.535156 11.4375c1.148438 1.492187 2.53125 2.789062 4.09375 3.839844-3.714843.519531-7.394531 1.289062-11.007812 2.304687-6.746094 1.871094-13.949219-.5625-18.175781-6.144531l-8.617188-11.4375c-5.257812-7.085938-4.300781-17.003906 2.21875-22.953125 6.578125-5.914063 12.683594-12.332031 18.261719-19.199219-11.179688-9.898438-27.734375-12.714844-51.714844-13.3125 3.925782-.171875 8.109375-.171875 12.546875-.171875 30.890625 0 51.199219 1.964844 64.339844 13.484375-5.621094 6.824219-11.726563 13.242188-18.261719 19.199219zm0 0"/><path d="m374.429688 222.890625-26.792969 26.792969-14.253907-10.921875 15.960938-15.871094c10.679688-10.742187 13.039062-27.226563 5.800781-40.535156l-22.953125-42.152344c7.769532-1.660156 15.6875-2.546875 23.636719-2.644531l24.488281 44.796875c7.265625 13.320312 4.863282 29.832031-5.886718 40.535156zm0 0"/></g><path d="m328.691406 366.933594c-6.761718 19.679687-15.421875 38.65625-25.855468 56.660156-2.183594-.660156-4.472657-.890625-6.742188-.683594-17.480469 2.082032-35.050781 3.277344-52.652344 3.585938-17.625-.308594-35.226562-1.503906-52.734375-3.585938-2.242187-.210937-4.503906.019532-6.65625.683594-10.464843-18-19.152343-36.976562-25.941406-56.660156-1.453125-4.46875-1.003906-9.339844 1.238281-13.472656 2.242188-4.128907 6.082032-7.15625 10.625-8.371094 24.027344-6.4375 48.640625-10.4375 73.46875-11.949219 24.828125 1.527344 49.441406 5.527344 73.472656 11.949219 4.535157 1.214844 8.371094 4.25 10.597657 8.382812 2.226562 4.132813 2.65625 9.003906 1.179687 13.460938zm0 0" fill="#607d8b"/><path d="m349.34375 222.890625-15.960938 15.871094-61.78125-47.53125c-8.132812-6.261719-19.234374-7.035157-28.160156-1.960938-1.078125.5625-2.105468 1.21875-3.070312 1.960938l-76.03125 58.453125-26.796875-26.792969c-10.75-10.703125-13.148438-27.214844-5.886719-40.535156l23.039062-42.152344c1.792969.339844 3.671876.769531 5.546876 1.28125 4.808593 1.289063 9.9375.449219 14.082031-2.304687 3.714843.519531 7.394531 1.289062 11.007812 2.304687 6.769531 1.863281 13.996094-.566406 18.261719-6.144531l8.53125-11.4375c5.257812-7.085938 4.300781-17.003906-2.21875-22.953125-6.535156-5.957031-12.636719-12.375-18.261719-19.199219 11.265625-9.898438 27.820313-12.714844 51.796875-13.3125 23.980469.597656 40.535156 3.414062 51.714844 13.3125-5.578125 6.867188-11.683594 13.285156-18.261719 19.199219-6.519531 5.949219-7.476562 15.867187-2.21875 22.953125l8.617188 11.4375c4.226562 5.582031 11.429687 8.015625 18.175781 6.144531 3.613281-1.015625 7.292969-1.785156 11.007812-2.304687 4.179688 2.753906 9.332032 3.59375 14.167969 2.304687 1.875-.511719 3.667969-.941406 5.546875-1.28125l22.953125 42.152344c7.238281 13.308593 4.878907 29.792969-5.800781 40.535156zm0 0" fill="#607d8b"/><path d="m312.476562 139.179688c6.039063-1 12.144532-1.539063 18.261719-1.621094l1.453125 2.644531c-1.878906.339844-3.671875.769531-5.546875 1.28125-4.835937 1.289063-9.988281.449219-14.167969-2.304687zm0 0" fill="#37474f"/><path d="m102.386719 153.601562c-3.675781 0-6.9375-2.351562-8.097657-5.839843l-28.875-86.636719c-4.449218-13.152344 2.464844-27.4375 15.539063-32.113281l78.25-28.492188c2.613281-.949219 5.527344-.566406 7.808594 1.027344 2.28125 1.597656 3.640625 4.203125 3.640625 6.988281 0 39.105469 28.210937 70.765625 45.023437 86.183594 9.78125 8.875 11.203125 23.734375 3.285157 34.304688l-8.535157 11.417968c-6.328125 8.410156-17.164062 12.085938-27.304687 9.265625-25.886719-5.453125-52.730469-4.257812-78.027344 3.464844-.875.289063-1.789062.433594-2.707031.429687zm51.917969-133.121093-67.523438 24.523437c-4.347656 1.582032-6.644531 6.332032-5.179688 10.71875l26.308594 78.917969c26.027344-6.90625 53.34375-7.398437 79.605469-1.433594 3.402344.960938 7.050781-.226562 9.234375-3.015625l8.53125-11.414062c2.660156-3.550782 2.15625-8.550782-1.160156-11.496094-17.175782-15.742188-45.011719-46.890625-49.816406-86.800781zm0 0"/><path d="m43.328125 171.980469c-10.71875.003906-20.300781-6.683594-23.988281-16.75l-18.386719-49.878907c-2.730469-7.847656.570313-16.519531 7.824219-20.574218l60.328125-34.328125c2.222656-1.261719 4.890625-1.464844 7.273437-.550781 2.382813.914062 4.234375 2.847656 5.042969 5.269531l29.070313 87.203125c.785156 2.324218.527343 4.875-.703126 7-1.226562 2.125-3.3125 3.613281-5.722656 4.09375-17.214844 3.402344-33.972656 8.828125-49.917968 16.160156-3.390626 1.566406-7.085938 2.371094-10.820313 2.355469zm25.183594-101.554688-51.382813 29.234375 18.230469 49.671875c.824219 2.230469 2.539063 4.015625 4.734375 4.929688 2.199219.910156 4.675781.859375 6.835938-.132813 14.246093-6.578125 29.109374-11.726562 44.371093-15.359375zm0 0"/><path d="m409.585938 153.601562c-.914063-.003906-1.820313-.152343-2.6875-.4375-25.300782-7.710937-52.140626-8.90625-78.027344-3.472656-10.140625 2.820313-20.976563-.859375-27.308594-9.265625l-8.53125-11.417969c-7.917969-10.570312-6.496094-25.429687 3.285156-34.304687 16.792969-15.402344 45.003906-47.0625 45.003906-86.167969.003907-2.785156 1.359376-5.390625 3.640626-6.988281 2.28125-1.59375 5.195312-1.976563 7.8125-1.027344l78.25 28.492188c13.089843 4.675781 20.007812 18.984375 15.539062 32.148437l-28.878906 86.601563c-1.160156 3.488281-4.421875 5.839843-8.097656 5.839843zm-50.457032-24.671874c15.15625.089843 30.242188 2.007812 44.9375 5.710937l26.308594-78.917969c1.460938-4.386718-.835938-9.136718-5.179688-10.71875l-67.523437-24.523437c-4.804687 39.9375-32.640625 71.082031-49.84375 86.828125-3.316406 2.945312-3.820313 7.941406-1.160156 11.492187l8.53125 11.417969c2.175781 2.792969 5.828125 3.984375 9.234375 3.011719 11.328125-2.933594 22.992187-4.378907 34.695312-4.300781zm0 0"/><path d="m468.644531 171.980469c-3.734375.003906-7.421875-.8125-10.808593-2.390625-15.957032-7.332032-32.726563-12.757813-49.957032-16.160156-2.40625-.476563-4.492187-1.96875-5.722656-4.09375-1.226562-2.125-1.484375-4.675782-.703125-7l29.109375-87.167969c.808594-2.417969 2.65625-4.351563 5.039062-5.265625 2.382813-.914063 5.046876-.710938 7.265626.546875l60.414062 34.371093c7.132812 4.011719 10.414062 12.515626 7.828125 20.277344l-18.476563 50.132813c-3.6875 10.066406-13.265624 16.753906-23.988281 16.75zm-47.964843-33.203125c15.265624 3.636718 30.128906 8.78125 44.375 15.359375 2.15625 1.003906 4.636718 1.058593 6.835937.144531 2.199219-.910156 3.914063-2.703125 4.726563-4.9375l18.386718-49.886719-51.53125-29.074219zm0 0"/><path d="m255.988281 512c-40.792969.035156-81.195312-7.941406-118.914062-23.476562-26.179688-10.878907-44.226563-35.308594-46.933594-63.527344-3.214844-32.703125-4.820313-55.101563-4.820313-66.597656-.125-18.292969-2.351562-36.515626-6.628906-54.304688-9.234375-39.839844-4.890625-81.628906 12.347656-118.714844 7.578126-16.289062 14.191407-32.207031 19.625-47.300781 1.019532-2.808594 3.429688-4.878906 6.359376-5.460937 23.230468-5.058594 47.304687-4.859376 70.449218.589843 3.40625.96875 7.058594-.226562 9.234375-3.023437l8.53125-11.40625c2.660157-3.550782 2.15625-8.550782-1.160156-11.496094-18.816406-17.289062-50.492187-53.101562-50.492187-98.746094 0-3.234375 1.828124-6.1875 4.71875-7.632812 2.890624-1.445313 6.351562-1.136719 8.9375.804687 26.59375 16.503907 57.457031 24.816407 88.746093 23.894531 31.285157.925782 62.152344-7.382812 88.746094-23.894531 2.601563-1.917969 6.054687-2.226562 8.949219-.792969 2.882812 1.445313 4.703125 4.394532 4.703125 7.621094 0 45.644532-31.675781 81.457032-50.558594 98.746094-3.316406 2.945312-3.820313 7.945312-1.160156 11.496094l8.53125 11.40625c2.175781 2.792968 5.828125 3.988281 9.234375 3.023437 23.144531-5.449219 47.214844-5.648437 70.449218-.589843 2.929688.582031 5.339844 2.652343 6.359376 5.460937 5.476562 15.09375 12.089843 31.011719 19.625 47.300781 17.238281 37.085938 21.582031 78.875 12.347656 118.714844-4.253906 17.792969-6.457032 36.011719-6.5625 54.304688 0 11.496093-1.601563 33.894531-4.785156 66.5625-2.707032 28.222656-20.753907 52.652343-46.933594 63.53125-37.726563 15.546874-78.140625 23.535156-118.945313 23.507812zm-130.929687-363.519531c-5.289063 14.191406-11.519532 29.011719-18.542969 44.089843-15.632813 33.621094-19.582031 71.503907-11.210937 107.625 4.582031 19.066407 6.960937 38.59375 7.082031 58.203126 0 10.789062 1.628906 33.28125 4.703125 64.941406 2.125 21.949218 16.171875 40.945312 36.539062 49.40625 71.992188 29.550781 152.726563 29.550781 224.714844 0 20.375-8.464844 34.425781-27.472656 36.542969-49.433594 3.070312-31.632812 4.699219-54.125 4.699219-64.914062.125-19.609376 2.5-39.136719 7.082031-58.203126 8.371093-36.121093 4.425781-74.003906-11.210938-107.625-7.023437-15.09375-13.253906-29.863281-18.542969-44.089843-19.210937-3.679688-38.984374-3.269531-58.027343 1.210937-10.140625 2.796875-20.964844-.878906-27.304688-9.273437l-8.535156-11.410157c-7.917969-10.570312-6.492187-25.429687 3.285156-34.304687 14.507813-13.277344 37.46875-38.65625 43.519531-70.460937-26.175781 12.476562-54.867187 18.78125-83.863281 18.425781-28.984375.347656-57.664062-5.953125-83.832031-18.425781 6.050781 31.804687 29.011719 57.175781 43.519531 70.460937 9.78125 8.875 11.203125 23.734375 3.285157 34.304687l-8.535157 11.410157c-6.328125 8.410156-17.160156 12.089843-27.304687 9.273437-19.054688-4.476562-38.835938-4.890625-58.0625-1.210937zm0 0"/><path d="m255.988281 512c-22.105469-.003906-44.148437-2.347656-65.757812-6.988281-2.828125-.605469-5.160157-2.605469-6.1875-5.308594l-19.320313-50.746094c-3.1875-8.390625-1.75-17.832031 3.789063-24.890625 5.535156-7.0625 14.367187-10.707031 23.269531-9.609375 21.308594 2.523438 42.75 3.75 64.207031 3.675781 21.457031.074219 42.894531-1.152343 64.203125-3.675781 8.914063-1.113281 17.757813 2.523438 23.304688 9.585938s6.988281 16.519531 3.796875 24.914062l-19.320313 50.746094c-1.027344 2.703125-3.355468 4.703125-6.183594 5.308594-21.628906 4.644531-43.683593 6.984375-65.800781 6.988281zm-57.660156-22.742188c38.070313 7.535157 77.25 7.535157 115.320313 0l17.652343-46.378906c1.0625-2.792968.582031-5.941406-1.265625-8.292968-1.84375-2.351563-4.785156-3.566407-7.753906-3.199219-22 2.613281-44.140625 3.886719-66.292969 3.8125-22.15625.074219-44.296875-1.195313-66.296875-3.804688-2.964844-.363281-5.902344.851563-7.75 3.199219-1.84375 2.347656-2.324218 5.492188-1.269531 8.285156zm0 0"/><path d="m255.988281 435.199219c-22.15625.074219-44.296875-1.195313-66.296875-3.804688-1.132812-.097656-2.277344.03125-3.363281.375-3.777344 1.058594-7.792969-.59375-9.726563-4.011719-10.707031-18.488281-19.613281-37.964843-26.589843-58.160156-2.175781-6.738281-1.488281-14.074218 1.894531-20.292968 3.324219-6.167969 9.070312-10.667969 15.855469-12.417969 28.773437-7.84375 58.40625-12.085938 88.226562-12.621094 29.816407.535156 59.453125 4.777344 88.226563 12.621094 6.792968 1.746093 12.546875 6.246093 15.878906 12.417969 3.382812 6.21875 4.070312 13.554687 1.894531 20.292968-6.996093 20.195313-15.917969 39.671875-26.640625 58.160156-1.933594 3.417969-5.949218 5.070313-9.726562 4.011719-1.089844-.335937-2.234375-.464843-3.371094-.375-21.992188 2.609375-44.117188 3.878907-66.261719 3.804688zm-67.046875-20.914063c.945313 0 1.890625.058594 2.832032.171875 21.3125 2.523438 42.753906 3.75 64.214843 3.675781 21.457031.074219 42.894531-1.152343 64.203125-3.675781 1.050782-.128906 2.089844-.148437 3.15625-.171875 8.957032-15.945312 16.449219-32.667968 22.382813-49.964844.753906-2.261718.519531-4.738281-.636719-6.824218-1.09375-2.035156-2.988281-3.523438-5.222656-4.105469-27.371094-7.398437-55.539063-11.449219-83.882813-12.058594-28.347656.605469-56.515625 4.652344-83.882812 12.050781-2.238281.582032-4.128907 2.066407-5.222657 4.105469-1.160156 2.085938-1.390624 4.558594-.640624 6.824219 5.9375 17.296875 13.429687 34.019531 22.382812 49.964844zm0 0"/><path d="m321.464844 348.835938c-.574219-.003907-1.148438-.066407-1.707032-.191407-20.953124-4.605469-42.320312-7.058593-63.769531-7.3125-21.4375.257813-42.789062 2.707031-63.726562 7.3125-3.554688.746094-7.191407-.839843-9.0625-3.949219l-37.640625-62.738281c-6.6875-11.144531-3.960938-25.53125 6.339844-33.457031l83.277343-64.058594c12.269531-9.441406 29.355469-9.441406 41.625 0l83.292969 64.058594c10.300781 7.925781 13.027344 22.3125 6.339844 33.457031l-37.65625 62.738281c-1.542969 2.566407-4.320313 4.136719-7.3125 4.140626zm-65.476563-24.570313c20.578125.203125 41.09375 2.371094 61.257813 6.476563l34.535156-57.566407c2.222656-3.710937 1.316406-8.503906-2.113281-11.144531l-83.277344-64.058594c-6.132813-4.714844-14.671875-4.714844-20.804687 0l-83.277344 64.070313c-3.429688 2.640625-4.339844 7.429687-2.117188 11.144531l34.535156 57.566406c20.167969-4.113281 40.679688-6.285156 61.261719-6.488281zm0 0"/><path d="m347.625 258.226562c-1.878906.003907-3.710938-.617187-5.203125-1.765624l-76.03125-58.488282c-6.132813-4.714844-14.671875-4.714844-20.804687 0l-76.03125 58.496094c-3.398438 2.613281-8.210938 2.300781-11.238282-.734375l-26.839844-26.835937c-13.304687-13.421876-16.261718-33.964844-7.285156-50.59375l24.445313-44.828126c1.574219-2.753906 4.507812-4.453124 7.679687-4.453124 10.546875.144531 21.035156 1.554687 31.242188 4.199218 3.398437.957032 7.035156-.238281 9.199218-3.03125l8.53125-11.40625c2.660157-3.550781 2.15625-8.546875-1.160156-11.496094-6.832031-6.253906-13.210937-12.992187-19.085937-20.15625-2.925781-3.558593-2.496094-8.800781.972656-11.835937 14.929687-13.082031 36.109375-15.5625 69.972656-15.5625 33.859375 0 55.039063 2.480469 69.972657 15.5625 3.460937 3.035156 3.890624 8.269531.972656 11.828125-5.875 7.164062-12.253906 13.898438-19.089844 20.15625-3.316406 2.945312-3.820312 7.945312-1.160156 11.496094l8.535156 11.40625c2.152344 2.800781 5.800781 4 9.195312 3.03125 10.210938-2.644532 20.699219-4.054688 31.242188-4.199219 3.179688-.023437 6.121094 1.683594 7.679688 4.453125l24.449218 44.828125c8.976563 16.628906 6.015625 37.171875-7.289062 50.59375l-26.835938 26.835937c-1.601562 1.601563-3.769531 2.5-6.035156 2.5zm-91.636719-80.859374c7.527344-.003907 14.847657 2.484374 20.8125 7.082031l70.09375 53.914062 21.535157-21.539062c7.980468-8.058594 9.753906-20.382813 4.371093-30.363281l-21.914062-40.175782c-7.445313.390625-14.835938 1.535156-22.050781 3.414063-10.132813 2.796875-20.945313-.886719-27.265626-9.28125l-8.53125-11.410157c-7.917968-10.570312-6.496093-25.429687 3.285157-34.304687 3.925781-3.601563 7.679687-7.371094 11.246093-11.273437-11.1875-5.453126-27.621093-6.628907-51.582031-6.628907-23.960937 0-40.398437 1.175781-51.558593 6.628907 3.558593 3.902343 7.320312 7.679687 11.246093 11.273437 9.78125 8.875 11.203125 23.734375 3.285157 34.304687l-8.535157 11.410157c-6.320312 8.394531-17.128906 12.078125-27.261719 9.28125-7.214843-1.878907-14.605468-3.023438-22.050781-3.414063l-21.914062 40.175782c-5.382813 9.980468-3.609375 22.304687 4.371093 30.363281l21.535157 21.539062 70.09375-53.921875c5.960937-4.585937 13.269531-7.070312 20.789062-7.074218zm0 0"/><path d="m179.1875 110.933594c0 4.710937-3.820312 8.53125-8.535156 8.53125-4.710938 0-8.53125-3.820313-8.53125-8.53125 0-4.714844 3.820312-8.535156 8.53125-8.535156 4.714844 0 8.535156 3.820312 8.535156 8.535156zm0 0"/><path d="m170.652344 204.800781c0 4.710938-3.820313 8.53125-8.53125 8.53125-4.714844 0-8.535156-3.820312-8.535156-8.53125 0-4.714843 3.820312-8.535156 8.535156-8.535156 4.710937 0 8.53125 3.820313 8.53125 8.535156zm0 0"/><path d="m213.320312 298.667969c0 4.710937-3.820312 8.53125-8.53125 8.53125-4.714843 0-8.535156-3.820313-8.535156-8.53125 0-4.714844 3.820313-8.535157 8.535156-8.535157 4.710938 0 8.53125 3.820313 8.53125 8.535157zm0 0"/><path d="m213.320312 392.535156c0 4.710938-3.820312 8.53125-8.53125 8.53125-4.714843 0-8.535156-3.820312-8.535156-8.53125 0-4.714844 3.820313-8.535156 8.535156-8.535156 4.710938 0 8.53125 3.820312 8.53125 8.535156zm0 0"/><path d="m221.855469 469.332031c0 4.714844-3.820313 8.535157-8.535157 8.535157-4.710937 0-8.53125-3.820313-8.53125-8.535157 0-4.710937 3.820313-8.53125 8.53125-8.53125 4.714844 0 8.535157 3.820313 8.535157 8.53125zm0 0"/><path d="m358.386719 204.800781c0 4.710938-3.820313 8.53125-8.53125 8.53125-4.714844 0-8.535157-3.820312-8.535157-8.53125 0-4.714843 3.820313-8.535156 8.535157-8.535156 4.710937 0 8.53125 3.820313 8.53125 8.535156zm0 0"/><path d="m315.71875 298.667969c0 4.710937-3.820312 8.53125-8.53125 8.53125-4.714844 0-8.535156-3.820313-8.535156-8.53125 0-4.714844 3.820312-8.535157 8.535156-8.535157 4.710938 0 8.53125 3.820313 8.53125 8.535157zm0 0"/><path d="m264.519531 221.867188c0 4.710937-3.820312 8.53125-8.53125 8.53125-4.714843 0-8.535156-3.820313-8.535156-8.53125 0-4.714844 3.820313-8.535157 8.535156-8.535157 4.710938 0 8.53125 3.820313 8.53125 8.535157zm0 0"/><path d="m315.71875 392.535156c0 4.710938-3.820312 8.53125-8.53125 8.53125-4.714844 0-8.535156-3.820312-8.535156-8.53125 0-4.714844 3.820312-8.535156 8.535156-8.535156 4.710938 0 8.53125 3.820312 8.53125 8.535156zm0 0"/><path d="m307.1875 469.332031c0 4.714844-3.820312 8.535157-8.535156 8.535157-4.710938 0-8.53125-3.820313-8.53125-8.535157 0-4.710937 3.820312-8.53125 8.53125-8.53125 4.714844 0 8.535156 3.820313 8.535156 8.53125zm0 0"/><path d="m153.585938 68.265625c0 4.714844-3.820313 8.535156-8.53125 8.535156-4.714844 0-8.535157-3.820312-8.535157-8.535156 0-4.710937 3.820313-8.53125 8.535157-8.53125 4.710937 0 8.53125 3.820313 8.53125 8.53125zm0 0"/><path d="m349.855469 110.933594c0 4.710937-3.820313 8.53125-8.535157 8.53125-4.710937 0-8.53125-3.820313-8.53125-8.53125 0-4.714844 3.820313-8.535156 8.53125-8.535156 4.714844 0 8.535157 3.820312 8.535157 8.535156zm0 0"/><path d="m375.453125 68.265625c0 4.714844-3.820313 8.535156-8.53125 8.535156-4.714844 0-8.535156-3.820312-8.535156-8.535156 0-4.710937 3.820312-8.53125 8.535156-8.53125 4.710937 0 8.53125 3.820313 8.53125 8.53125zm0 0"/></svg>