<svg height="512" viewBox="0 0 48 60" width="512" xmlns="http://www.w3.org/2000/svg"><g id="022---Medieval-Knight-Helmet" fill="none"><g id="Icons" transform="translate(1 1)"><path id="Shape" d="m46 58h-46c4.65090798-2.4507152 7.68425611-7.1524048 8-12.4 12.571 7.78-11.241-6.982 12.37 7.65 1.6107298 1.000063 3.6492702 1.000063 5.26 0l12.37-7.65c.3159373 5.2475319 3.3492295 9.9491347 8 12.4z" fill="#607d8b"/><path id="Shape" d="m38 45.6-2.785 1.722c.7988622 4.5739318 3.6746379 8.5183805 7.785 10.678h3c-4.6507705-2.4508653-7.6840627-7.1524681-8-12.4z" fill="#37474f"/><path id="Shape" d="m42.04 22.14c-.062.093.306-.5-2.68 4.29-.2337619.3699204-.5811152.6541186-.99.81l-13.61 5.1c-1.1339416.429975-2.3860584.429975-3.52 0l-13.61-5.1c-.40910475-.1555014-.75656701-.4397887-.99-.81l-2.68-4.29c-.07-2.82.17-11.79 6.04-15.14 6.966-3.983 12.02-2.022 13-7 1 5 6 3 13 7 5.87 3.35 6.11 12.32 6.04 15.14z" fill="#7f8e94"/><path id="Shape" d="m36 7c-7-4-12-2-13-7-.1474351 1.04411845-.6830441 1.99428898-1.5 2.661 2.162 1.709 6.273 1.352 11.5 4.339 5.87 3.35 6.11 12.32 6.04 15.14-.062.093.306-.5-2.68 4.29-.2337619.3699204-.5811152.6541186-.99.81-16.07 6.023-13.255 4.977-13.87 5.172 1.0635754.3451177 2.2126987.3197383 3.26-.072l13.61-5.1c.4088848-.1558814.7562381-.4400796.99-.81 2.986-4.785 2.618-4.2 2.68-4.29.07-2.82-.17-11.79-6.04-15.14z" fill="#545c60"/><path id="Shape" d="m35 24.77v3.73l-10.24 3.84c-1.1339416.429975-2.3860584.429975-3.52 0l-10.24-3.84v-3.73c.0026209-.6409864.312314-1.2418793.8328384-1.6159444.5205245-.3740651 1.1888034-.4759734 1.7971616-.2740556l8.74 2.91c.4083397.1399619.8516603.1399619 1.26 0l8.74-2.91c.6083582-.2019178 1.2766371-.1000095 1.7971616.2740556.5205244.3740651.8302175.974958.8328384 1.6159444z" fill="#37474f"/><path id="Shape" d="m44 22.49v12.71c-.0022238 4.1534264-2.1503028 8.0108921-5.68 10.2-.5.311 1.687-1.041-12.69 7.85-1.6107298 1.000063-3.6492702 1.000063-5.26 0-23.725-14.7.241.155-12.37-7.65-3.70976884-2.1503872-5.99534267-6.1120485-6-10.4v-12.71c-.00144322-.4474094.29447815-.8413328.72458743-.9645533.43010927-.1232205.88972756.054251 1.12541257.4345533.074.122 2.806 4.531 2.98 4.73.475.518-.548.041 14.41 5.65 1.1339416.429975 2.3860584.429975 3.52 0 12.087-4.533 9.117-3.42 13.61-5.1.4088848-.1558814.7562381-.4400796.99-.81 3.092-4.954 2.728-4.369 2.79-4.47.235685-.3803023.6953033-.5577738 1.1254126-.4345533.4301092.1232205.7260306.5171439.7245874.9645533z" fill="#9e9e9e"/><path id="Shape" d="m42.15 21.96c-.047.078.15-.239-1.15 1.843v11.397c-.0022238 4.1534264-2.1503028 8.0108921-5.68 10.2-.5.311 1.687-1.041-12.69 7.85-.354001.2165674-.7335868.3882208-1.13.511 1.3852539.4407344 2.8939384.2540667 4.13-.511 14.377-8.891 12.193-7.539 12.69-7.85 3.5296972-2.1891079 5.6777762-6.0465736 5.68-10.2v-12.71c.0014432-.4474094-.2944782-.8413328-.7245874-.9645533-.4301093-.1232205-.8897276.054251-1.1254126.4345533z" fill="#707070"/><g fill="#37474f"><path id="Shape" d="m19 47c-1.1045695 0-2-.8954305-2-2v-7c0-1.1045695.8954305-2 2-2s2 .8954305 2 2v7c0 1.1045695-.8954305 2-2 2z"/><path id="Shape" d="m11 42c-1.1045695 0-2-.8954305-2-2v-5c0-1.1045695.8954305-2 2-2s2 .8954305 2 2v5c0 1.1045695-.8954305 2-2 2z"/><path id="Shape" d="m27 47c1.1045695 0 2-.8954305 2-2v-7c0-1.1045695-.8954305-2-2-2s-2 .8954305-2 2v7c0 1.1045695.8954305 2 2 2z"/><path id="Shape" d="m35 42c1.1045695 0 2-.8954305 2-2v-5c0-1.1045695-.8954305-2-2-2s-2 .8954305-2 2v5c0 1.1045695.8954305 2 2 2z"/></g><path id="Shape" d="m37.07 7.73c-6.888 5.218-19.489 6.18-28.14 0 .33650988-.27163817.69433115-.51575922 1.07-.73 7.019-4.015 11.984-1.995 13-7 1 5 6 3 13 7 .3756689.21424078.7334901.45836183 1.07.73z" fill="#f44335"/><path id="Shape" d="m36 7c-7-4-12-2-13-7-.1560669 1.04199154-.6956511 1.9881361-1.513 2.653 2.161 1.719 6.277 1.355 11.513 4.347.3756689.21424078.7334901.45836183 1.07.73-3.6322152 2.5876328-7.9432994 4.0537491-12.4 4.217 6.544.3 11.84-1.523 15.4-4.217-.3365099-.27163817-.6943311-.51575922-1.07-.73z" fill="#c81e1e"/></g><g id="Stroke" fill="#000" transform="translate(0 -1)"><path id="Shape" d="m47.486 59.126c-4.1807099-2.1853167-6.9778373-6.3311866-7.439-11.026 3.7168796-2.3770718 5.9620599-6.4880183 5.953-10.9v-12.713c.0066933-.5251933-.197471-1.031142-.5667957-1.4046016s-.872969-.5832442-1.3982043-.5823984c-.121-4.2-1.163-11.3-6.539-14.371-7.055-4.029-11.681-2.15-12.516-6.329-.0946385-.4660648-.5044237-.80100251-.98-.80100251s-.8853615.33493771-.98.80100251c-.829 4.147-5.54 2.346-12.52 6.331-5.372 3.069-6.414 10.176-6.535 14.369-.52515168-.0005743-1.02863708.2092967-1.39790272.5826966-.36926565.3733999-.5735182.8791907-.56709728 1.4043034v12.713c-.0090599 4.4119817 2.23612038 8.5229282 5.953 10.9-.46116273 4.6948134-3.25829011 8.8406833-7.439 11.026-.39821913.2214016-.59643052.6839956-.48205239 1.1250339s.5124241.7489999.96805239.7489661h46c.4556283.0000338.8536743-.3079278.9680524-.7489661s-.0838333-.9036323-.4820524-1.1250339zm-23.486-54.584c2.162 2.92 6.6 2.052 12.271 5.2-6.927 4.357-17.6 4.363-24.542 0 5.679-3.151 10.104-2.274 12.271-5.2zm-14.006 6.458c7.811 5.348 20.192 5.354 28.012 0 3.779 3.546 4.074 10.306 4.038 12.84l-2.533 4.06c-.235.376-.361.355-2.511 1.162v-2.292c-.0025471-.9624303-.4666901-1.8652058-1.2479371-2.4272838-.7812469-.5620781-1.7847328-.715207-2.6980629-.4117162l-8.748 2.913c-.43.148.117.243-9.36-2.913-.9133301-.3034908-1.916816-.1503619-2.6980629.4117162-.781247.562078-1.24539 1.4648535-1.2479371 2.4272838v2.287l-2.014-.757c-.428-.16-.228.025-3.03-4.459-.036-2.533.259-9.293 4.038-12.841zm15.411 22.4c-.9058433.3398309-1.9041567.3398309-2.81 0l-9.595-3.593v-3.037c.0026879-.319542.157928-.6185565.4177319-.8046109s.5928806-.2367401.8962681-.1363891l8.732 2.907c.6155981.2119654 1.2844019.2119654 1.9 0l8.74-2.91c.3038869-.1005089.6375239-.0494768.8974724.1372746s.4147934.4866531.4165276.8067254v3.037zm-21.405 3.8-.00005156-12.713 2.79205156 4.469c.35101332.5580074.87502422.9857857 1.492 1.218l13.609 5.1c1.3585481.5090432 2.8554519.5090432 4.214 0l13.609-5.1c.6172708-.232216 1.141375-.6604218 1.492-1.219l2.7920646-4.468-.0000646 12.713c.013079 3.812866-1.9612162 7.3571237-5.21 9.353l-12.69 7.847c-1.2882.8039166-2.9218.8039166-4.21 0l-12.68-7.851c-3.24756507-1.9951338-5.22168237-5.5375566-5.21-9.349zm.249 21.8c2.988527-2.4468086 4.96903542-5.9103838 5.562-9.727l11.031 6.827c1.9327462 1.2055761 4.3832538 1.2055761 6.316 0l11.031-6.829c.5924986 3.817337 2.5730489 7.2816978 5.562 9.729z"/><path id="Shape" d="m20 50c1.6568542 0 3-1.3431458 3-3v-7c0-1.6568542-1.3431458-3-3-3s-3 1.3431458-3 3v7c0 1.6568542 1.3431458 3 3 3zm-1-10c0-.5522847.4477153-1 1-1s1 .4477153 1 1v7c0 .5522847-.4477153 1-1 1s-1-.4477153-1-1z"/><path id="Shape" d="m12 45c1.6568542 0 3-1.3431458 3-3v-5c0-1.6568542-1.3431458-3-3-3s-3 1.3431458-3 3v5c0 1.6568542 1.3431458 3 3 3zm-1-8c0-.5522847.4477153-1 1-1s1 .4477153 1 1v5c0 .5522847-.4477153 1-1 1s-1-.4477153-1-1z"/><path id="Shape" d="m28 50c1.6568542 0 3-1.3431458 3-3v-7c0-1.6568542-1.3431458-3-3-3s-3 1.3431458-3 3v7c0 1.6568542 1.3431458 3 3 3zm-1-10c0-.5522847.4477153-1 1-1s1 .4477153 1 1v7c0 .5522847-.4477153 1-1 1s-1-.4477153-1-1z"/><path id="Shape" d="m36 45c1.6568542 0 3-1.3431458 3-3v-5c0-1.6568542-1.3431458-3-3-3s-3 1.3431458-3 3v5c0 1.6568542 1.3431458 3 3 3zm-1-8c0-.5522847.4477153-1 1-1s1 .4477153 1 1v5c0 .5522847-.4477153 1-1 1s-1-.4477153-1-1z"/><path id="Shape" d="m24 20c.5522847 0 1-.4477153 1-1v-1c0-.5522847-.4477153-1-1-1s-1 .4477153-1 1v1c0 .5522847.4477153 1 1 1z"/><path id="Shape" d="m18 19c.5522847 0 1-.4477153 1-1v-1c0-.5522847-.4477153-1-1-1s-1 .4477153-1 1v1c0 .5522847.4477153 1 1 1z"/><path id="Shape" d="m12 17c.5522847 0 1-.4477153 1-1v-1c0-.5522847-.4477153-1-1-1s-1 .4477153-1 1v1c0 .5522847.4477153 1 1 1z"/><path id="Shape" d="m30 19c.5522847 0 1-.4477153 1-1v-1c0-.5522847-.4477153-1-1-1s-1 .4477153-1 1v1c0 .5522847.4477153 1 1 1z"/><path id="Shape" d="m36 17c.5522847 0 1-.4477153 1-1v-1c0-.5522847-.4477153-1-1-1s-1 .4477153-1 1v1c0 .5522847.4477153 1 1 1z"/></g></g></svg>