<svg height="512pt" viewBox="0 -119 512.00029 512" width="512pt" xmlns="http://www.w3.org/2000/svg"><path d="m79.140625 109.101562c53.417969 43.640626 119.921875 69.078126 188.898437 69.449219.621094.003907 1.246094.003907 1.867188.003907 67.425781 0 129.039062-24.75 176.339844-65.632813 3.53125-3.050781 8.820312-2.714844 11.816406.867187l51.980469 62.15625c2.753906 3.292969 2.597656 8.195313-.449219 11.222657-54.039062 53.679687-128.429688 86.894531-210.617188 86.894531-142.304687 0-261.386718-99.417969-291.582031-232.585938l20.90625.035157c12.5625 25.164062 28.941407 47.085937 48.375 65.578125zm0 0" fill="#ffe09f"/><path d="m504.183594 168.933594c-51.476563 54.472656-124.34375 88.519531-205.207032 88.519531-133.0625 0-244.554687-92.0625-274.433593-215.949219l-17.144531-.027344c30.191406 133.167969 149.273437 232.585938 291.578124 232.585938 82.1875 0 156.578126-33.214844 210.617188-86.894531 3.046875-3.027344 3.203125-7.929688.449219-11.226563zm0 0" fill="#f6d190"/><path d="m185.175781 165.855469c-38.441406-11.667969-74.523437-31.011719-106.035156-56.753907l-2.464844-2.011718c-19.433593-18.492188-35.808593-40.414063-48.371093-65.578125l-20.90625-.035157c18.898437 83.363282 72.640624 153.492188 145.097656 194.296876zm0 0" fill="#c38c66"/><path d="m8.480469 45.820312c19.765625 81.445313 72.828125 149.863282 144.015625 189.953126l7.058594-15.105469c-66.546876-37.886719-116.164063-102.0625-134.808594-178.382813zm0 0" fill="#b57f5f"/><path d="m16.609375 49.832031c-9.171875 0-16.609375-7.4375-16.609375-16.613281v-24.914062c0-4.585938 3.71875-8.304688 8.304688-8.304688h16.609374c4.589844 0 8.304688 3.71875 8.304688 8.304688v24.914062c0 9.175781-7.4375 16.613281-16.609375 16.613281zm0 0" fill="#785353"/><path d="m30.257812 114.46875c-2.527343 0-5.027343-1.152344-6.65625-3.332031-2.75-3.675781-1.996093-8.882813 1.679688-11.625l26.722656-19.972657c3.671875-2.757812 8.878906-1.996093 11.621094 1.679688 2.75 3.671875 1.996094 8.878906-1.679688 11.621094l-26.722656 19.972656c-1.492187 1.121094-3.234375 1.65625-4.964844 1.65625zm0 0" fill="#9f6e50"/><path d="m46.351562 143.40625c-2.386718 0-4.746093-1.015625-6.382812-2.984375-2.945312-3.519531-2.46875-8.757813 1.050781-11.695313l32.183594-26.863281c3.519531-2.941406 8.765625-2.464843 11.695313 1.054688 2.941406 3.519531 2.464843 8.761719-1.054688 11.695312l-32.183594 26.863281c-1.546875 1.296876-3.4375 1.929688-5.308594 1.929688zm0 0" fill="#9f6e50"/><g fill="#785353"><path d="m435.820312 157.667969c-2.296874 0-4.582031-.949219-6.230468-2.816407-3.03125-3.4375-2.707032-8.683593.738281-11.71875l8.824219-7.785156c3.421875-3.027344 8.679687-2.710937 11.71875.738282 3.035156 3.4375 2.710937 8.683593-.738282 11.71875l-8.824218 7.785156c-1.570313 1.394531-3.535156 2.078125-5.488282 2.078125zm0 0"/><path d="m449.914062 177.558594c-2.292968 0-4.578124-.949219-6.226562-2.8125-3.035156-3.4375-2.710938-8.6875.738281-11.71875l8.824219-7.785156c3.421875-3.035157 8.667969-2.710938 11.71875.738281 3.03125 3.4375 2.707031 8.683593-.738281 11.71875l-8.824219 7.785156c-1.574219 1.394531-3.535156 2.074219-5.492188 2.074219zm0 0"/><path d="m464.011719 197.457031c-2.296875 0-4.582031-.949219-6.230469-2.816406-3.03125-3.4375-2.707031-8.683594.738281-11.71875l8.824219-7.785156c3.429688-3.027344 8.679688-2.71875 11.71875.738281 3.035156 3.4375 2.710938 8.683594-.738281 11.71875l-8.824219 7.785156c-1.570312 1.394532-3.535156 2.078125-5.488281 2.078125zm0 0"/></g><path d="m16.609375 49.832031c-9.171875 0-16.609375-7.4375-16.609375-16.613281v-24.914062c0-4.585938 3.71875-8.304688 8.304688-8.304688h8.304687zm0 0" fill="#6e4848"/><path d="m486.875 207.503906c7.90625-6.402344 15.507812-13.171875 22.71875-20.335937 3.046875-3.027344 3.203125-7.929688.449219-11.222657l-51.980469-62.15625c-2.996094-3.582031-8.285156-3.917968-11.816406-.867187-5.390625 4.660156-10.972656 9.109375-16.722656 13.335937zm0 0" fill="#c38c66"/><path d="m504.183594 168.933594c-8.410156 8.898437-17.394532 17.253906-26.886719 25.003906l9.578125 13.566406c7.90625-6.402344 15.507812-13.171875 22.71875-20.335937 3.046875-3.027344 3.203125-7.929688.449219-11.222657zm0 0" fill="#b57f5f"/><path d="m206.890625 240.964844c-5.007813 2.566406-11.457031 5.964844-15.183594 13.207031 5.324219 2.046875 10.703125 3.976563 16.171875 5.722656 1.363282-1.328125 3.375-2.507812 6.589844-4.152343 6.21875-3.1875 14.742188-7.550782 17.402344-19.132813 2.675781-11.679687-3.210938-19.15625-7.5-24.625-3.910156-4.976563-5.207032-7.039063-4.382813-10.65625.84375-3.6875 2.960938-5.058594 8.777344-8.035156 5.59375-2.855469 13-6.707031 16.382813-15.835938-6.179688-.53125-12.328126-1.257812-18.441407-2.183593-1.324219.992187-3.023437 1.964843-5.5 3.234374-6.230469 3.179688-14.753906 7.535157-17.40625 19.105469-2.675781 11.679688 3.210938 19.164063 7.511719 24.632813 3.898438 4.972656 5.199219 7.039062 4.371094 10.648437-.851563 3.707031-2.96875 5.085938-8.792969 8.070313zm0 0" fill="#785353"/><path d="m205.589844 241.632812c-4.804688 2.5-10.445313 5.859376-13.882813 12.539063 5.324219 2.046875 10.703125 3.976563 16.171875 5.722656 1.363282-1.328125 3.375-2.507812 6.589844-4.152343 3.574219-1.832032 7.933594-4.074219 11.480469-7.828126-6.855469-1.832031-13.722657-3.957031-20.359375-6.28125zm0 0" fill="#6e4848"/></svg>