<svg height="512pt" viewBox="-111 0 512 512" width="512pt" xmlns="http://www.w3.org/2000/svg"><path d="m281.601562 59.734375v366.933594c0 59.304687-42.070312 76.542969-134.570312 76.796875h-2.21875c-4.355469 0-8.707031 0-12.800781-.082032-84.824219-1.621093-123.476563-19.882812-123.476563-76.714843v-366.933594c0-32.511719 38.738282-49.578125 123.730469-51.03125 4.183594-.167969 8.449219-.167969 12.800781-.167969 93.867188 0 136.535156 17.066406 136.535156 51.199219zm0 0" fill="#c52828"/><path d="m256 59.734375v366.933594c0 57-38.828125 75.09375-123.988281 76.714843-84.824219-1.621093-123.476563-19.882812-123.476563-76.714843v-366.933594c0-32.511719 38.738282-49.578125 123.730469-51.03125 84.992187 1.453125 123.734375 18.519531 123.734375 51.03125zm0 0" fill="#f44335"/><path d="m247.464844 179.199219c-.316406 31.945312-16.378906 61.671875-42.921875 79.445312-.152344-6.410156-.984375-12.789062-2.472657-19.027343-2.203124-14.179688-11.898437-26.058594-25.34375-31.0625 20.394532-17.75 41.214844-34.046876 44.628907-63.488282.347656-2.832031.519531-5.679687.511719-8.53125-.34375-18.792968-2.285157-37.519531-5.804688-55.980468-.289062-1.507813.554688-3.003907 1.996094-3.535157s3.054687.0625 3.808594 1.402344c16.402343 31.089844 25.175781 65.632813 25.597656 100.777344zm0 0" fill="#fdd834"/><path d="m68.265625 78.4375c.734375-1.351562 2.34375-1.964844 3.792969-1.445312 1.445312.523437 2.296875 2.019531 2.003906 3.527343-3.527344 18.472657-5.46875 37.210938-5.796875 56.015625 0 34.898438 22.835937 52.675782 45.160156 71.992188-14.660156 5.308594-26.539062 18.382812-27.871093 50.125-26.519532-17.796875-42.5625-47.515625-42.886719-79.453125.414062-35.140625 9.1875-69.683594 25.597656-100.761719zm0 0" fill="#ffeb3a"/><path d="m247.464844 349.867188c-.421875 35.148437-9.195313 69.6875-25.597656 100.777343-.753907 1.339844-2.367188 1.933594-3.808594 1.402344s-2.285156-2.027344-1.996094-3.535156c3.519531-18.460938 5.460938-37.1875 5.804688-55.976563.007812-2.855468-.164063-5.703125-.511719-8.535156-3.414063-29.441406-24.234375-45.738281-44.628907-63.488281 13.445313-5.003907 23.140626-16.882813 25.34375-31.0625 1.488282-6.238281 2.320313-12.617188 2.472657-19.027344 26.542969 17.773437 42.605469 47.503906 42.921875 79.445313zm0 0" fill="#fdd834"/><g fill="#ffeb3a"><path d="m224.339844 179.199219c.140625 22.171875-7.773438 43.640625-22.269532 60.417969-2.203124-14.179688-11.898437-26.058594-25.34375-31.0625 20.394532-17.75 41.214844-34.046876 44.628907-63.488282 1.972656 11.269532 2.972656 22.691406 2.984375 34.132813zm0 0"/><path d="m224.339844 349.867188c-.011719 11.441406-1.011719 22.863281-2.984375 34.132812-3.414063-29.441406-24.234375-45.738281-44.628907-63.488281 13.445313-5.003907 23.140626-16.882813 25.34375-31.0625 14.496094 16.777343 22.410157 38.246093 22.269532 60.417969zm0 0"/><path d="m68.265625 450.628906c.734375 1.351563 2.34375 1.964844 3.792969 1.445313 1.445312-.519531 2.296875-2.019531 2.003906-3.527344-3.527344-18.472656-5.46875-37.210937-5.796875-56.011719 0-34.902344 22.835937-52.679687 45.160156-71.996094-14.660156-5.308593-26.539062-18.382812-27.871093-50.125-26.519532 17.796876-42.5625 47.519532-42.886719 79.453126.414062 35.144531 9.1875 69.683593 25.597656 100.761718zm0 0"/></g><path d="m204.800781 264.535156c0 59.730469-34.132812 59.730469-59.734375 59.730469-4.011718 0-8.191406 0-12.457031-.253906h-.683594c-22.785156-1.367188-46.59375-9.558594-46.59375-59.476563 0-50.179687 24.066407-58.199218 46.933594-59.480468 4.351563-.253907 8.703125-.253907 12.800781-.253907 25.601563 0 59.734375 0 59.734375 59.734375zm0 0" fill="#424242"/><path d="m179.199219 264.535156c0 49.917969-23.808594 58.109375-46.589844 59.476563h-.683594c-22.785156-1.367188-46.59375-9.558594-46.59375-59.476563 0-50.179687 24.066407-58.199218 46.933594-59.480468 22.871094 1.28125 46.933594 9.300781 46.933594 59.480468zm0 0" fill="#9e9e9e"/><path d="m170.667969 264.535156c0-9.425781-11.460938-17.070312-25.601563-17.070312-14.136718 0-25.601562 7.644531-25.601562 17.070312 0 9.425782 11.464844 17.066406 25.601562 17.066406 14.140625 0 25.601563-7.640624 25.601563-17.066406zm0 0" fill="#cfd8dc"/><path d="m145.066406 512c-120.398437 0-145.066406-34.132812-145.066406-85.332031v-366.933594c0-53.539063 82.773438-59.734375 145.066406-59.734375 62.292969 0 145.066406 6.195312 145.066406 59.734375v366.933594c0 70.824219-58.027343 85.332031-145.066406 85.332031zm0-494.933594c-84.933594 0-128 14.363282-128 42.667969v366.933594c0 51.035156 32.300782 68.265625 128 68.265625 95.703125 0 128-17.230469 128-68.265625v-366.933594c0-28.304687-43.066406-42.667969-128-42.667969zm0 0"/><path d="m145.066406 332.800781c-25.53125 0-68.265625 0-68.265625-68.265625 0-68.269531 42.734375-68.269531 68.265625-68.269531s68.265625 0 68.265625 68.269531c0 68.265625-42.734375 68.265625-68.265625 68.265625zm0-119.46875c-26.324218 0-51.199218 0-51.199218 51.203125 0 51.199219 24.875 51.199219 51.199218 51.199219 26.324219 0 51.199219 0 51.199219-51.199219 0-51.203125-24.875-51.203125-51.199219-51.203125zm0 0"/><path d="m145.066406 290.132812c-19.140625 0-34.132812-11.238281-34.132812-25.597656 0-14.363281 14.992187-25.601562 34.132812-25.601562s34.132813 11.238281 34.132813 25.601562c0 14.359375-14.992188 25.597656-34.132813 25.597656zm0-34.132812c-10.417968 0-17.066406 5.050781-17.066406 8.535156 0 3.480469 6.648438 8.53125 17.066406 8.53125 10.417969 0 17.066406-5.050781 17.066406-8.53125 0-3.484375-6.648437-8.535156-17.066406-8.535156zm0 0"/><path d="m204.585938 267.1875c-1.285157-.003906-2.554688-.296875-3.710938-.855469-2.832031-1.367187-4.679688-4.179687-4.8125-7.320312-1.324219-31.308594-13.339844-39.253907-22.253906-42.460938-2.863282-1.027343-4.960938-3.496093-5.511719-6.484375-.554687-2.988281.523437-6.042968 2.832031-8.023437l3.410156-2.96875c20.875-17.878907 38.792969-33.339844 38.792969-62.539063-.304687-18.289062-2.199219-36.515625-5.65625-54.480468-1.054687-5.625 2.132813-11.183594 7.519531-13.113282 5.390626-1.929687 11.382813.339844 14.136719 5.359375 17.113281 32.34375 26.257813 68.308594 26.667969 104.898438-.285156 34.671875-17.640625 66.976562-46.394531 86.347656-1.457031 1.066406-3.214844 1.636719-5.019531 1.640625zm-12.960938-60.269531c10.757812 8.765625 17.777344 21.300781 19.625 35.054687 17.636719-16.109375 27.679688-38.890625 27.683594-62.773437-.125-20.0625-3.199219-40-9.132813-59.167969.378907 5.46875.597657 11.015625.597657 16.503906 0 33.703125-18.824219 52.90625-38.773438 70.382813zm0 0"/><path d="m85.546875 267.1875c-1.804687-.003906-3.558594-.574219-5.019531-1.640625-28.753906-19.371094-46.109375-51.675781-46.394532-86.347656.414063-36.589844 9.554688-72.554688 26.667969-104.898438 2.753907-5.019531 8.746094-7.289062 14.136719-5.359375 5.390625 1.929688 8.578125 7.488282 7.519531 13.113282-3.457031 17.964843-5.351562 36.191406-5.65625 54.480468 0 29.199219 17.960938 44.660156 38.765625 62.574219l3.414063 2.96875c2.304687 1.980469 3.382812 5.035156 2.832031 8.023437-.550781 2.988282-2.652344 5.457032-5.511719 6.484376-8.917969 3.234374-20.933593 11.152343-22.253906 42.460937-.132813 3.140625-1.984375 5.953125-4.8125 7.320313-1.15625.542968-2.414063.824218-3.6875.820312zm-25.214844-147.15625c-5.933593 19.167969-9.007812 39.105469-9.132812 59.167969-.007813 23.878906 10.023437 46.65625 27.640625 62.773437 1.851562-13.753906 8.867187-26.289062 19.625-35.054687-19.90625-17.476563-38.730469-36.679688-38.730469-70.382813 0-5.488281.222656-11.035156.597656-16.503906zm0 0"/><path d="m219.152344 460.800781c-3.464844-.007812-6.75-1.550781-8.964844-4.214843-2.214844-2.664063-3.136719-6.175782-2.511719-9.585938 3.457031-17.957031 5.351563-36.179688 5.65625-54.464844 0-29.203125-17.917969-44.664062-38.765625-62.578125l-3.414062-2.96875c-2.304688-1.980469-3.382813-5.035156-2.832032-8.023437.550782-2.988282 2.652344-5.457032 5.511719-6.484375 8.917969-3.234375 20.933594-11.152344 22.253907-42.460938.136718-3.140625 1.988281-5.953125 4.816406-7.316406 2.832031-1.367187 6.183594-1.066406 8.726562.78125 28.757813 19.386719 46.105469 51.703125 46.371094 86.382813-.410156 36.589843-9.554688 72.554687-26.667969 104.898437-2.039062 3.71875-5.941406 6.027344-10.179687 6.035156zm-27.527344-138.648437c19.949219 17.472656 38.773438 36.675781 38.773438 70.382812 0 5.484375-.21875 11.03125-.597657 16.5 5.933594-19.167968 9.007813-39.105468 9.132813-59.167968.007812-23.875-10.023438-46.65625-27.640625-62.773438-1.859375 13.761719-8.894531 26.296875-19.667969 35.058594zm0 0"/><path d="m70.980469 460.800781c-4.238281-.007812-8.140625-2.316406-10.179688-6.035156-17.113281-32.34375-26.253906-68.308594-26.667969-104.898437.285157-34.671876 17.640626-66.976563 46.394532-86.347657 2.542968-1.851562 5.898437-2.148437 8.726562-.785156 2.832032 1.367187 4.683594 4.179687 4.816406 7.320313 1.324219 31.308593 13.339844 39.253906 22.257813 42.460937 2.859375 1.027344 4.957031 3.496094 5.511719 6.484375.550781 2.988281-.527344 6.042969-2.832032 8.023438l-3.414062 2.96875c-20.832031 17.878906-38.792969 33.339843-38.792969 62.542968.304688 18.285156 2.199219 36.515625 5.65625 54.476563.625 3.40625-.292969 6.917969-2.511719 9.578125-2.214843 2.664062-5.5 4.207031-8.964843 4.210937zm7.859375-173.707031c-17.617188 16.117188-27.648438 38.898438-27.640625 62.773438.125 20.0625 3.199219 40 9.132812 59.167968-.375-5.46875-.597656-11.015625-.597656-16.5 0-33.707031 18.824219-52.910156 38.773437-70.382812-10.773437-8.761719-17.808593-21.296875-19.667968-35.058594zm0 0"/><path d="m34.132812 273.066406h-25.597656c-4.714844 0-8.535156-3.820312-8.535156-8.53125 0-4.714844 3.820312-8.535156 8.535156-8.535156h25.597656c4.714844 0 8.535157 3.820312 8.535157 8.535156 0 4.710938-3.820313 8.53125-8.535157 8.53125zm0 0"/><path d="m281.601562 273.066406h-25.601562c-4.710938 0-8.535156-3.820312-8.535156-8.53125 0-4.714844 3.824218-8.535156 8.535156-8.535156h25.601562c4.710938 0 8.53125 3.820312 8.53125 8.535156 0 4.710938-3.820312 8.53125-8.53125 8.53125zm0 0"/><path d="m145.066406 477.867188c-4.710937 0-8.53125-3.820313-8.53125-8.535157v-145.066406c0-4.710937 3.820313-8.53125 8.53125-8.53125 4.714844 0 8.535156 3.820313 8.535156 8.53125v145.066406c0 4.714844-3.820312 8.535157-8.535156 8.535157zm0 0"/><path d="m145.066406 213.332031c-4.710937 0-8.53125-3.820312-8.53125-8.53125v-145.066406c0-4.714844 3.820313-8.535156 8.53125-8.535156 4.714844 0 8.535156 3.820312 8.535156 8.535156v145.066406c0 4.710938-3.820312 8.53125-8.535156 8.53125zm0 0"/></svg>