<svg height="511pt" viewBox="-189 0 511 511.99958" width="511pt" xmlns="http://www.w3.org/2000/svg"><path d="m65.332031 4.070312c-10.140625 31.964844-48.910156 75.707032-40.328125 125.347657l17.5 46.554687h50.402344l18.117188-46.730468c5.730468-52.980469-21.734376-104.476563-35.648438-126.675782-2.558594-4.078125-8.585938-3.085937-10.042969 1.503906zm0 0" fill="#ffe07d"/><path d="m42.503906 175.972656h50.402344l7.246094-18.683594c-3.878906-33.578124-16.460938-62.328124-17.09375-63.746093-2.695313-6.070313-8.714844-9.976563-15.351563-9.976563-6.640625 0-12.65625 3.90625-15.355469 9.976563-.628906 1.410156-13.105468 29.917969-17.039062 63.300781zm0 0" fill="#fff"/><path d="m42.503906 209.574219 16.800782 285.625h16.800781l16.800781-285.625zm0 0" fill="#d19a6e"/><path d="m92.90625 209.574219h-50.402344l16.800782 285.625h8.402343v-260.421875c0-4.640625 3.757813-8.402344 8.398438-8.402344h15.8125zm0 0" fill="#c38c66"/><g fill="#c8c5c9"><path d="m34.101562 175.972656v25.199219c0 4.640625 3.761719 8.402344 8.402344 8.402344h50.402344c4.640625 0 8.402344-3.761719 8.402344-8.402344v-25.199219zm0 0"/><path d="m84.507812 495.199219c0 9.277343-7.523437 16.800781-16.800781 16.800781-9.28125 0-16.800781-7.523438-16.800781-16.800781 0-9.28125 7.519531-16.800781 16.800781-16.800781 9.277344 0 16.800781 7.519531 16.800781 16.800781zm0 0"/><path d="m63.800781 110.304688c-4.964843 13.710937-12.894531 39.691406-12.894531 65.667968h33.601562c0-25.976562-7.933593-51.957031-12.898437-65.667968-1.328125-3.667969-6.480469-3.667969-7.808594 0zm0 0"/><path d="m92.914062 184.371094c-.457031 0-.917968-.035156-1.382812-.113282-4.578125-.761718-7.671875-5.089843-6.910156-9.667968 9.132812-54.761719 38.007812-64.980469 39.230468-65.394532 4.4375-1.480468 9.15625.921876 10.625 5.3125 1.453126 4.355469-.851562 9.058594-5.160156 10.578126-.695312.28125-20.902344 8.9375-28.121094 52.269531-.683593 4.105469-4.242187 7.015625-8.28125 7.015625zm0 0"/></g><path d="m89.941406 259.980469.988282-16.804688h-46.449219l.988281 16.804688zm0 0" fill="#c38c66"/><path d="m87.964844 293.582031.988281-16.800781h-42.496094l.988281 16.800781zm0 0" fill="#c38c66"/><path d="m85.988281 327.183594.988281-16.800782h-38.542968l.988281 16.800782zm0 0" fill="#c38c66"/><path d="m67.707031 327.183594v-16.800782h-19.273437l.988281 16.800782zm0 0" fill="#b57f5f"/><path d="m67.707031 293.582031v-16.800781h-21.25l.988281 16.800781zm0 0" fill="#b57f5f"/><path d="m67.707031 259.980469v-16.804688h-23.226562l.988281 16.804688zm0 0" fill="#b57f5f"/><path d="m109.707031 167.570312h-60.308593c-10.324219-48.539062-36.671876-57.980468-37.839844-58.375-4.4375-1.480468-9.15625.921876-10.625 5.3125-1.46875 4.402344.910156 9.160157 5.308594 10.628907.1875.0625 17.46875 6.898437 25.964843 42.433593h-6.507812c-4.640625 0-8.398438 3.761719-8.398438 8.402344s3.753907 8.398438 8.398438 8.398438h8.402343v16.800781c0 4.640625 3.761719 8.402344 8.402344 8.402344h16.800782v-16.800781c0-4.640626 3.761718-8.402344 8.398437-8.402344h42.003906c4.644531 0 8.402344-3.757813 8.402344-8.398438s-3.757813-8.402344-8.402344-8.402344zm0 0" fill="#b6b1b7"/><path d="m64.511719 28.828125c1.945312-4.589844 9.988281-5.582031 13.398437-1.5 7.15625 8.554687 17.015625 21.472656 25.972656 37.140625-8.074218-26.777344-20.523437-49.160156-28.507812-61.902344-2.558594-4.078125-8.585938-3.085937-10.042969 1.503906-6.921875 21.8125-27.164062 49.085938-36.601562 80 13.101562-20.820312 29.101562-39.457031 35.78125-55.242187zm0 0" fill="#ffd064"/><path d="m76.105469 503.597656c-9.277344 0-16.800781-7.519531-16.800781-16.800781 0-2.460937.53125-4.808594 1.484374-6.917969-5.835937 2.636719-9.886718 8.5-9.886718 15.320313 0 9.277343 7.523437 16.800781 16.800781 16.800781 6.820313 0 12.679687-4.054688 15.316406-9.890625-2.105469.953125-4.449219 1.488281-6.914062 1.488281zm0 0" fill="#b6b1b7"/></svg>